<svg width="108" height="24" viewBox="0 0 108 24" fill="none" xmlns="http://www.w3.org/2000/svg">
<path d="M104.458 17.7232V11.4462C104.458 11.1426 104.44 10.757 104.406 10.2893C104.372 9.8134 104.265 9.33751 104.085 8.86161C103.906 8.38571 103.61 7.98776 103.2 7.66776C102.797 7.34776 102.224 7.18776 101.48 7.18776C101.18 7.18776 100.859 7.23289 100.517 7.32314C100.175 7.4134 99.8539 7.58981 99.5545 7.85238C99.255 8.10674 99.0068 8.48417 98.81 8.98468C98.6218 9.4852 98.5276 10.1498 98.5276 10.9785L96.5253 10.0678C96.5253 9.01751 96.7478 8.03289 97.1928 7.11391C97.6377 6.19494 98.3052 5.45237 99.1951 4.88622C100.094 4.32006 101.223 4.03699 102.584 4.03699C103.67 4.03699 104.556 4.2134 105.24 4.56622C105.925 4.91904 106.456 5.36622 106.832 5.90776C107.217 6.4493 107.491 7.01545 107.654 7.60622C107.816 8.18879 107.914 8.72212 107.949 9.20622C107.983 9.69033 108 10.0431 108 10.2647V17.7232H104.458ZM94.9851 17.7232V4.43083H98.0912V8.83699H98.5276V17.7232H94.9851Z" fill="#D9563A"/>
<path d="M85.1548 18.0923C83.76 18.0923 82.5364 17.7928 81.4839 17.1939C80.4314 16.5949 79.6099 15.7703 79.0195 14.72C78.4377 13.6616 78.1467 12.4472 78.1467 11.0769C78.1467 9.69028 78.4462 8.47181 79.0452 7.42156C79.6442 6.36309 80.4699 5.53848 81.5224 4.94771C82.5749 4.35694 83.7857 4.06155 85.1548 4.06155C86.5495 4.06155 87.7732 4.36104 88.8257 4.96002C89.8867 5.55899 90.7124 6.38771 91.3029 7.44617C91.8933 8.49643 92.1885 9.70669 92.1885 11.0769C92.1885 12.4554 91.889 13.6739 91.29 14.7323C90.6996 15.7826 89.8739 16.6072 88.8128 17.2062C87.7603 17.7969 86.541 18.0923 85.1548 18.0923ZM85.1548 14.9662C86.2757 14.9662 87.11 14.6052 87.6577 13.8831C88.2138 13.1528 88.4919 12.2175 88.4919 11.0769C88.4919 9.89541 88.2096 8.95181 87.6448 8.24617C87.0886 7.54053 86.2586 7.18771 85.1548 7.18771C84.3932 7.18771 83.7686 7.35181 83.2808 7.68002C82.7931 8.00822 82.4294 8.46361 82.1898 9.04617C81.9588 9.62874 81.8433 10.3057 81.8433 11.0769C81.8433 12.2667 82.1214 13.2144 82.6776 13.92C83.2423 14.6175 84.0681 14.9662 85.1548 14.9662Z" fill="#D9563A"/>
<path d="M68.8274 24C68.0402 24 67.2915 23.877 66.5813 23.6308C65.8711 23.3929 65.2336 23.0564 64.6688 22.6216C64.1126 22.1949 63.6591 21.6944 63.3083 21.12L66.5428 19.6185C66.7652 20.0123 67.0819 20.3118 67.4926 20.517C67.9119 20.7221 68.3654 20.8246 68.8531 20.8246C69.3751 20.8246 69.8671 20.7385 70.3292 20.5662C70.7912 20.4021 71.1592 20.1518 71.433 19.8154C71.7154 19.4872 71.848 19.0769 71.8309 18.5846V14.72H72.2673V4.43078H75.3221V18.6339C75.3221 18.9621 75.305 19.2698 75.2707 19.5569C75.2451 19.8523 75.1937 20.1436 75.1167 20.4308C74.8942 21.2431 74.4792 21.9118 73.8717 22.437C73.2727 22.9621 72.5368 23.3518 71.664 23.6062C70.7912 23.8687 69.8457 24 68.8274 24ZM68.5194 18.0923C67.2444 18.0923 66.1278 17.7846 65.1694 17.1693C64.211 16.5539 63.4623 15.7169 62.9232 14.6585C62.3927 13.6 62.1274 12.4062 62.1274 11.0769C62.1274 9.7231 62.397 8.52104 62.9361 7.47079C63.4837 6.41232 64.2495 5.5795 65.2336 4.97232C66.2176 4.36514 67.3728 4.06155 68.6991 4.06155C70.0168 4.06155 71.125 4.36925 72.0234 4.98463C72.9219 5.60002 73.6022 6.43694 74.0642 7.4954C74.5263 8.55386 74.7573 9.74771 74.7573 11.0769C74.7573 12.4062 74.522 13.6 74.0514 14.6585C73.5893 15.7169 72.8962 16.5539 71.9721 17.1693C71.0479 17.7846 69.8971 18.0923 68.5194 18.0923ZM69.0842 15.1139C69.8628 15.1139 70.4832 14.9457 70.9453 14.6093C71.4159 14.2728 71.7539 13.801 71.9592 13.1939C72.1646 12.5867 72.2673 11.881 72.2673 11.0769C72.2673 10.2728 72.1646 9.5672 71.9592 8.96002C71.7539 8.35284 71.4244 7.88104 70.9709 7.54463C70.526 7.20822 69.9398 7.04002 69.2125 7.04002C68.4338 7.04002 67.7921 7.22463 67.2872 7.59386C66.7909 7.95489 66.423 8.4431 66.1834 9.05848C65.9438 9.66566 65.824 10.3385 65.824 11.0769C65.824 11.8236 65.9395 12.5046 66.1705 13.12C66.4016 13.7272 66.7567 14.2113 67.2359 14.5723C67.7151 14.9334 68.3312 15.1139 69.0842 15.1139Z" fill="#D9563A"/>
<path d="M51.7823 18.0923C50.7897 18.0923 49.9469 17.9118 49.2538 17.5508C48.5692 17.1816 48.0473 16.6934 47.6879 16.0862C47.337 15.4708 47.1616 14.7939 47.1616 14.0554C47.1616 13.44 47.26 12.878 47.4568 12.3693C47.6536 11.8605 47.9702 11.4134 48.4066 11.0277C48.8516 10.6339 49.4463 10.3057 50.1907 10.0431C50.7042 9.86258 51.316 9.70258 52.0262 9.5631C52.7364 9.42361 53.5407 9.29233 54.4392 9.16925C55.3377 9.03797 56.326 8.89438 57.4042 8.73848L56.1463 9.4031C56.1463 8.6154 55.9495 8.03694 55.5559 7.66771C55.1623 7.29848 54.5034 7.11386 53.5792 7.11386C53.0658 7.11386 52.531 7.23284 51.9748 7.47079C51.4186 7.70874 51.0293 8.1313 50.8068 8.73848L47.6494 7.77848C48.0002 6.67899 48.6591 5.78463 49.626 5.0954C50.5929 4.40617 51.9107 4.06155 53.5792 4.06155C54.8029 4.06155 55.8896 4.24207 56.8394 4.60309C57.7892 4.96412 58.508 5.58771 58.9957 6.47386C59.2695 6.96617 59.4321 7.45848 59.4835 7.95079C59.5348 8.4431 59.5605 8.99284 59.5605 9.60002V17.7231H56.5057V14.9908L56.9421 15.5569C56.2661 16.4513 55.5345 17.0995 54.7473 17.5016C53.9686 17.8954 52.9803 18.0923 51.7823 18.0923ZM52.5268 15.4585C53.1685 15.4585 53.7076 15.3518 54.144 15.1385C54.589 14.9169 54.9398 14.6667 55.1965 14.3877C55.4618 14.1087 55.6414 13.8749 55.7356 13.6862C55.9153 13.3252 56.0179 12.9067 56.0436 12.4308C56.0778 11.9467 56.095 11.5446 56.095 11.2246L57.1218 11.4708C56.0864 11.6349 55.2478 11.7744 54.6061 11.8893C53.9643 11.9959 53.4466 12.0944 53.053 12.1846C52.6594 12.2749 52.3128 12.3734 52.0134 12.48C51.6711 12.6113 51.393 12.7549 51.1791 12.9108C50.9737 13.0585 50.8197 13.2226 50.717 13.4031C50.6229 13.5836 50.5758 13.7846 50.5758 14.0062C50.5758 14.3098 50.6528 14.5723 50.8068 14.7939C50.9694 15.0072 51.1962 15.1713 51.4871 15.2862C51.778 15.4011 52.1246 15.4585 52.5268 15.4585Z" fill="#D9563A"/>
<path d="M32.428 17.7231L37.3824 11.0031L32.5307 4.43082H36.6379L39.4104 8.36928L42.1314 4.43082H46.2387L41.387 11.0031L46.3671 17.7231H42.2598L39.4104 13.637L36.5353 17.7231H32.428Z" fill="#D9563A"/>
<path d="M25.2952 18.0923C23.8748 18.0923 22.6212 17.8011 21.5345 17.2185C20.4563 16.6277 19.6092 15.8195 18.9931 14.7939C18.3856 13.76 18.0818 12.5785 18.0818 11.2493C18.0818 9.79694 18.3813 8.53335 18.9803 7.45848C19.5792 6.38361 20.405 5.55079 21.4575 4.96002C22.5099 4.36104 23.7207 4.06155 25.0898 4.06155C26.5445 4.06155 27.781 4.38976 28.7992 5.04617C29.8175 5.70258 30.5705 6.62566 31.0582 7.8154C31.546 9.00515 31.7171 10.4041 31.5716 12.0123H28.119V10.7816C28.119 9.42771 27.8922 8.4554 27.4387 7.86463C26.9937 7.26566 26.2621 6.96617 25.2439 6.96617C24.0545 6.96617 23.1774 7.31489 22.6126 8.01233C22.0564 8.70156 21.7783 9.7231 21.7783 11.0769C21.7783 12.3159 22.0564 13.2759 22.6126 13.9569C23.1774 14.6298 24.0031 14.9662 25.0898 14.9662C25.7744 14.9662 26.3605 14.8226 26.8483 14.5354C27.336 14.2482 27.7082 13.8339 27.9649 13.2923L31.4561 14.2523C30.9342 15.4667 30.1084 16.4103 28.9789 17.0831C27.858 17.7559 26.6301 18.0923 25.2952 18.0923ZM20.7002 12.0123V9.52617H29.8902V12.0123H20.7002Z" fill="#D9563A"/>
<path d="M0 17.7231V0H3.49119V7.28616H11.7571V0H15.2483V17.7231H11.7571V10.4123H3.49119V17.7231H0Z" fill="#D9563A"/>
</svg>
