<svg width="128" height="24" viewBox="0 0 128 24" fill="none" xmlns="http://www.w3.org/2000/svg">
<g clip-path="url(#clip0_375_121)">
<path d="M12.0027 5.84667C8.59739 5.84667 5.85069 8.59405 5.85069 12C5.85069 15.4061 8.59739 18.1532 12.0027 18.1532C15.4079 18.1532 18.1545 15.406 18.1545 12C18.1545 8.59405 15.4078 5.84667 12.0027 5.84667ZM12.0027 16.0005C9.80215 16.0005 8.00308 14.2064 8.00308 12C8.00308 9.79366 9.79671 7.9996 12.0027 7.9996C14.2085 7.9996 16.0022 9.79366 16.0022 12C16.0022 14.2064 14.2032 16.0005 12.0027 16.0005ZM19.8411 5.59503C19.8411 6.393 19.1985 7.03025 18.4062 7.03025C17.6083 7.03025 16.9713 6.38763 16.9713 5.59503C16.9713 4.80243 17.6137 4.15975 18.4062 4.15975C19.1985 4.15975 19.8411 4.80237 19.8411 5.59503ZM23.9155 7.05159C23.8246 5.12911 23.3856 3.42602 21.9774 2.02295C20.5746 0.619826 18.872 0.180681 16.9499 0.0843456C14.9688 -0.0281152 9.03111 -0.0281152 7.05006 0.0843456C5.13325 0.175306 3.43065 0.614502 2.02254 2.01762C0.61436 3.42075 0.180691 5.12373 0.0843261 7.04627C-0.0281087 9.02772 -0.0281087 14.9669 0.0843261 16.9484C0.17537 18.871 0.61436 20.5739 2.02254 21.9771C3.43065 23.3802 5.12798 23.8193 7.05006 23.9157C9.03105 24.0281 14.9688 24.0281 16.9499 23.9157C18.872 23.8247 20.5746 23.3854 21.9774 21.9771C23.3802 20.5739 23.8193 18.871 23.9155 16.9484C24.0281 14.967 24.0281 9.03309 23.9155 7.05159ZM21.3562 19.0745C20.9386 20.1241 20.1302 20.9329 19.0754 21.3558C17.496 21.9825 13.748 21.8379 12.0026 21.8379C10.257 21.8379 6.50385 21.9772 4.92977 21.3558C3.88035 20.9382 3.07181 20.1296 2.64888 19.0745C2.02254 17.4947 2.16716 13.7459 2.16716 12C2.16716 10.2542 2.02791 6.50009 2.64894 4.92558C3.06664 3.87592 3.87502 3.06725 4.92982 2.64423C6.50928 2.01762 10.2571 2.16223 12.0027 2.16223C13.748 2.16223 17.5014 2.02301 19.0755 2.64423C20.1248 3.06182 20.9334 3.87059 21.3563 4.92558C21.9828 6.50536 21.8382 10.2542 21.8382 12C21.8382 13.7459 21.9827 17.5 21.3562 19.0745Z" fill="#747578"/>
</g>
<path d="M75.643 4.93708C74.808 5.30707 73.911 5.55707 72.968 5.67007C73.941 5.08786 74.669 4.17154 75.016 3.09208C74.1019 3.63506 73.1014 4.01727 72.058 4.22207C71.3564 3.47294 70.4271 2.9764 69.4143 2.80955C68.4016 2.6427 67.3621 2.81487 66.4573 3.29932C65.5524 3.78379 64.8328 4.55344 64.4102 5.48878C63.9875 6.42412 63.8855 7.47283 64.12 8.47206C62.2677 8.37906 60.4556 7.89763 58.8014 7.05898C57.1472 6.22033 55.6879 5.04324 54.518 3.60407C54.118 4.29407 53.888 5.09407 53.888 5.94607C53.8876 6.71307 54.0764 7.46832 54.4379 8.14483C54.7993 8.82133 55.3222 9.39808 55.96 9.82408C55.2203 9.80053 54.4969 9.60066 53.85 9.24111V9.30111C53.8499 10.3768 54.222 11.4195 54.9032 12.2521C55.5843 13.0847 56.5326 13.656 57.587 13.8691C56.9008 14.0548 56.1813 14.0821 55.483 13.9491C55.7805 14.8747 56.36 15.6841 57.1404 16.264C57.9207 16.8439 58.8629 17.1652 59.835 17.1831C58.1848 18.4785 56.1469 19.1812 54.049 19.1781C53.6774 19.1782 53.3061 19.1565 52.937 19.1131C55.0665 20.4823 57.5454 21.2089 60.077 21.2061C68.647 21.2061 73.332 14.1081 73.332 7.95208C73.332 7.75206 73.327 7.55008 73.318 7.35007C74.2293 6.69105 75.0159 5.87497 75.641 4.94008L75.643 4.93708Z" fill="#747578"/>
<g clip-path="url(#clip1_375_121)">
<path d="M124.484 0H107.516C105.577 0 104 1.57727 104 3.51562V20.4844C104 22.4227 105.577 24 107.516 24H114.594V15.5156H111.781V11.2969H114.594V8.4375C114.594 6.11115 116.486 4.21875 118.812 4.21875H123.078V8.4375H118.812V11.2969H123.078L122.375 15.5156H118.812V24H124.484C126.423 24 128 22.4227 128 20.4844V3.51562C128 1.57727 126.423 0 124.484 0Z" fill="#747578"/>
</g>
<defs>
<clipPath id="clip0_375_121">
<rect width="24" height="24" fill="white"/>
</clipPath>
<clipPath id="clip1_375_121">
<rect width="24" height="24" fill="white" transform="translate(104)"/>
</clipPath>
</defs>
</svg>
